<svg xmlns="http://www.w3.org/2000/svg" version="1.1" xmlns:xlink="http://www.w3.org/1999/xlink" xmlns:svgjs="http://svgjs.dev/svgjs" width="1000" height="1000" viewBox="0 0 1000 1000"><rect width="1000" height="1000" fill="#c8c8c8"></rect><g transform="matrix(0.7,0,0,0.7,150,218.95000000000005)"><svg viewBox="0 0 448 360" data-background-color="#c8c8c8" preserveAspectRatio="xMidYMid meet" height="803" width="1000" xmlns="http://www.w3.org/2000/svg" xmlns:xlink="http://www.w3.org/1999/xlink"><g id="tight-bounds" transform="matrix(1,0,0,1,0,0)"><svg viewBox="0 0 448 360" height="360" width="448"><g><svg></svg></g><g><svg viewBox="0 0 448 360" height="360" width="448"><g><path xmlns="http://www.w3.org/2000/svg" d="M193.855 44.683c1.378 0 2.494 1.116 2.495 2.494 0 1.378-1.116 2.494-2.495 2.495h-23.846l-17.167 17.167c-0.973 0.973-2.551 0.973-3.53 0-0.973-0.973-0.973-2.551 0-3.529l13.644-13.645h-40.378c-11.518 0-19.151 2.688-23.815 8.113-4.739 5.519-6.66 14.056-6.66 25.63 0 0.069 0 0.137-0.006 0.206l0.212 36.692 14.692-14.692c0.973-0.973 2.551-0.973 3.53 0 0.973 0.973 0.973 2.551 0 3.53l-18.178 18.178c0.206 35.832 0.193 71.358-0.013 107.19 25.486 25.2 50.617 50.312 75.811 75.791h25.38c1.378 0 2.494 1.116 2.495 2.495 0 1.378-1.116 2.494-2.495 2.494h-20.448l25.942 26.241 0.006-0.006c8.188 8.188 15.577 12.859 22.824 13.413 7.146 0.543 14.442-2.956 22.586-11.093l28.555-28.555h-20.722c-1.378 0-2.494-1.116-2.495-2.494 0-1.378 1.116-2.494 2.495-2.495h25.711l16.625-16.625c0.973-0.973 2.551-0.973 3.529 0 0.973 0.973 0.973 2.551 0 3.53l-13.101 13.102h40.377c11.518 0 19.151-2.688 23.815-8.113 4.739-5.519 6.66-14.056 6.66-25.63h0.013l-0.212-36.898-16.014 16.014c-0.973 0.973-2.551 0.973-3.53 0-0.973-0.973-0.973-2.551 0-3.53l19.5-19.5c-0.206-35.832-0.193-71.358 0.013-107.19-25.486-25.2-50.617-50.312-75.811-75.791h-26.147c-1.378 0-2.494-1.116-2.495-2.495 0-1.378 1.116-2.494 2.495-2.494h21.215l-25.824-26.123c-0.044-0.037-0.081-0.075-0.124-0.112-8.188-8.188-15.577-12.859-22.824-13.413-7.146-0.543-14.442 2.956-22.586 11.093l-28.555 28.555h18.858zM122.578 44.683h45.367l32.078-32.078c9.248-9.248 17.81-13.195 26.484-12.534 8.568 0.649 16.956 5.824 25.985 14.854 0.05 0.05 0.094 0.094 0.137 0.143l29.278 29.615h43.508c13.071 0 21.919 3.268 27.594 9.871 5.6 6.517 7.864 16.101 7.864 28.867 0 0.081-0.006 0.156-0.012 0.23l-0.225 39.742 28.43 28.112 0.006-0.006c9.03 9.03 14.206 17.411 14.854 25.985 0.661 8.674-3.293 17.236-12.534 26.484l-30.768 30.768 0.237 41.843h0.012c0 12.765-2.27 22.35-7.864 28.867-5.675 6.604-14.524 9.872-27.594 9.871h-45.366l-32.078 32.078c-9.248 9.248-17.81 13.195-26.484 12.534-8.568-0.649-16.956-5.824-25.985-14.854l0.006-0.006-29.421-29.758h-43.509c-13.071 0-21.919-3.268-27.594-9.872-5.6-6.517-7.864-16.101-7.863-28.866h0.012l0.231-39.972-28.293-27.969c-0.05-0.044-0.1-0.087-0.143-0.137-9.03-9.03-14.206-17.411-14.854-25.985-0.661-8.674 3.293-17.236 12.534-26.484l30.768-30.768-0.237-41.607c-0.006-0.075-0.012-0.156-0.012-0.23 0-12.765 2.27-22.35 7.864-28.867 5.675-6.604 14.524-9.872 27.594-9.871zM87.682 179.997l-0.274-47.724-27.276 27.276c-8.138 8.138-11.636 15.44-11.094 22.587 0.549 7.246 5.226 14.642 13.413 22.823 0.037 0.037 0.081 0.081 0.113 0.125l24.837 24.551 0.281-49.644zM92.303 241.483l-0.2 35.09h0.013c0 11.58 1.921 20.117 6.66 25.63 4.664 5.432 12.297 8.113 23.815 8.113h38.576l-33.55-33.936-35.308-34.903zM325.415 49.672h-38.575l33.549 33.936 35.308 34.902 0.2-34.884c-0.006-0.069-0.006-0.137-0.007-0.205 0-11.58-1.921-20.117-6.66-25.63-4.664-5.432-12.297-8.113-23.815-8.113zM360.599 130.352l-0.281 49.645 0.274 47.724 27.276-27.276c8.138-8.138 11.636-15.44 11.094-22.587-0.549-7.252-5.226-14.642-13.413-22.824l0.006-0.006-24.956-24.669z" fill="#6b7280" fill-rule="nonzero" stroke="none" stroke-width="1" stroke-linecap="butt" stroke-linejoin="miter" stroke-miterlimit="10" stroke-dasharray="" stroke-dashoffset="0" font-family="none" font-weight="none" font-size="none" text-anchor="none" style="mix-blend-mode: normal" data-fill-palette-color="tertiary"></path></g><g transform="matrix(1,0,0,1,112,90)"><svg viewBox="0 0 224 180" height="180" width="224"><g><svg viewBox="0 0 224 180" height="180" width="224"><g><svg viewBox="0 0 224 180" height="180" width="224"><g><svg viewBox="0 0 224 180" height="180" width="224"><g><svg viewBox="0 0 224 180" height="180" width="224"><g transform="matrix(1,0,0,1,67.60027187898422,47.57359312880715)"><svg viewBox="0 0 88.79945624203155 84.8528137423857" height="84.8528137423857" width="88.79945624203155"><g><svg xmlns="http://www.w3.org/2000/svg" viewBox="5 6 90 86" x="0" y="0" height="84.8528137423857" width="88.79945624203155" class="icon-o-0" data-fill-palette-color="accent" id="o-0"><path d="M85 16V11a5.006 5.006 0 0 0-5-5H72a5.006 5.006 0 0 0-5 5v5H33V11a5.006 5.006 0 0 0-5-5H20a5.006 5.006 0 0 0-5 5v5H5V83a9.01 9.01 0 0 0 9 9H86a9.01 9.01 0 0 0 9-9V16H85ZM71 11a1.013 1.013 0 0 1 1-1h8a1.013 1.013 0 0 1 1 1v5H71V11ZM19 11a1.013 1.013 0 0 1 1-1h8a1.013 1.013 0 0 1 1 1v5H19V11ZM9 20H91v6H9V20ZM91 83a5.006 5.006 0 0 1-5 5H14a5.006 5.006 0 0 1-5-5V30H91V83ZM88 33H12V85H88V33ZM34 53H48V65H34V53ZM30 65H16V53H30V65ZM70 53H80.739L70 62.546V53ZM66 65H52V53H66V65Zm0-16H52V37H66V49Zm4-12H80.739L70 46.546V37ZM48 49H34V37H48V49Zm0 20V81H34V69H48Zm4 0H66V81H52V69Zm18 0H80.739L70 78.546V69Zm14-4H73.261L84 55.454V65Zm0-16H73.261L84 39.454V49ZM30 37V49H16V37H30ZM16 69H30V81H16V69ZM73.261 81L84 71.454V81H73.261Z" fill="#ebebe6" data-fill-palette-color="accent"></path></svg></g></svg></g><path d="M42.321 68.578L27.258 63.45 25.746 67.892 24.133 67.343 27.845 56.44 29.458 56.989 27.891 61.592 42.953 66.719ZM45.428 60.538L29.791 52.426 30.691 50.693 37.748 54.354 41.584 46.961 34.526 43.299 35.421 41.575 51.057 49.686 50.163 51.411 43.07 47.731 39.234 55.125 46.327 58.805ZM54.007 46.102L39.811 35.673 40.961 34.107 55.158 44.536ZM58.364 41.241L46.036 28.728C47.68 26.847 49.108 25.31 50.319 24.117V24.117L50.482 23.956C51.798 22.66 53.012 22.042 54.125 22.102V22.102C55.068 22.18 56.109 22.796 57.246 23.951V23.951C58.7 25.427 59.571 26.732 59.859 27.866V27.866C60.151 29.024 59.888 30.191 59.072 31.369V31.369C59.485 31.41 59.905 31.467 60.331 31.54V31.54L61.499 31.76 66.852 32.878 65.213 34.494 60.402 33.387C59.089 33.104 58.181 32.959 57.679 32.951V32.951L57.587 33.042C57.189 33.414 56.806 33.773 56.437 34.118V34.118L55.196 35.243 59.755 39.871ZM48.455 28.401L54.105 34.136C54.71 33.595 55.628 32.719 56.858 31.507V31.507C57.866 30.514 58.275 29.552 58.085 28.621V28.621C57.903 27.812 57.201 26.787 55.98 25.547V25.547C54.95 24.502 54.044 24.046 53.264 24.181V24.181C52.803 24.262 52.397 24.452 52.048 24.75 51.698 25.048 51.402 25.316 51.161 25.554 50.915 25.796 50.681 26.031 50.458 26.26 50.236 26.488 50.016 26.715 49.798 26.938 49.58 27.162 49.36 27.393 49.137 27.631V27.631ZM69.09 31.761L59.504 17.101C59.504 17.101 59.961 16.751 60.876 16.05V16.05C62.248 14.993 63.365 14.183 64.227 13.62 65.089 13.056 65.797 12.641 66.352 12.373 66.913 12.102 67.44 11.919 67.935 11.826 68.433 11.739 68.911 11.747 69.369 11.853 69.823 11.953 70.28 12.166 70.74 12.492V12.492C71.602 13.095 72.56 14.203 73.614 15.815V15.815L74.59 17.307C75.837 19.214 76.642 20.755 77.006 21.93V21.93C77.427 23.29 77.378 24.496 76.86 25.549V25.549C76.333 26.648 75.224 27.75 73.534 28.855V28.855ZM69.156 14.004C68.687 13.795 68.173 13.738 67.616 13.832 67.057 13.936 66.324 14.284 65.418 14.877 64.512 15.469 63.371 16.291 61.994 17.342V17.342L69.824 29.316 72.893 27.31C74.088 26.528 74.846 25.751 75.166 24.978V24.978C75.486 24.229 75.439 23.332 75.024 22.285V22.285C74.693 21.415 73.973 20.132 72.864 18.436V18.436L71.883 16.935C70.836 15.334 69.927 14.357 69.156 14.004ZM86.115 21.2L86.382 19.433C88.315 19.812 90.079 19.76 91.675 19.277V19.277C93.525 18.717 94.43 17.798 94.39 16.519V16.519C94.374 16.1 94.289 15.637 94.135 15.128V15.128L94.005 14.699C93.849 14.184 93.685 13.779 93.513 13.485 93.348 13.194 93.118 12.983 92.821 12.851V12.851C92.339 12.636 91.351 12.637 89.855 12.854V12.854C88.524 13.041 87.59 13.12 87.053 13.088 86.516 13.056 86.06 12.983 85.685 12.867 85.31 12.752 84.964 12.572 84.647 12.328V12.328C83.989 11.805 83.483 10.959 83.129 9.789V9.789L83.094 9.675C82.361 7.253 82.93 5.498 84.8 4.411V4.411C85.398 4.071 86.101 3.778 86.908 3.534V3.534L87.051 3.49C88.939 2.919 90.563 2.722 91.922 2.901V2.901L91.86 4.762C90.222 4.577 88.796 4.669 87.582 5.037V5.037L87.477 5.069C86.136 5.475 85.287 6.006 84.93 6.662V6.662C84.633 7.217 84.645 8.022 84.964 9.077V9.077L84.976 9.116C85.339 10.317 85.909 11.005 86.683 11.18V11.18C87.201 11.287 88.067 11.257 89.28 11.091 90.493 10.926 91.401 10.82 92.006 10.776 92.61 10.732 93.156 10.796 93.646 10.967V10.967C94.652 11.335 95.417 12.384 95.941 14.113V14.113L95.984 14.256C96.783 16.894 96.198 18.789 94.229 19.941V19.941C93.622 20.298 93.029 20.564 92.451 20.739 91.872 20.914 91.339 21.055 90.85 21.161 90.367 21.259 89.861 21.332 89.335 21.381V21.381C88.113 21.494 87.04 21.434 86.115 21.2ZM98.008 19.004L101.917 0.885 104.582 0.607 112.536 17.488 110.465 17.704 108.183 12.743 101.128 13.479 100.02 18.794ZM101.492 11.789L107.468 11.165 103.416 2.291 103.195 3.627ZM116.672 17.905L117.806 2.034 113.125 1.699 113.246 0 124.734 0.82 124.613 2.52 119.763 2.173 118.63 18.044ZM126.772 10.898L128.891 1.642 130.785 2.076 128.684 11.254C128.269 13.067 128.065 14.318 128.07 15.007 128.074 15.703 128.142 16.243 128.272 16.628 128.403 17.005 128.608 17.331 128.886 17.606V17.606C129.42 18.131 130.234 18.518 131.328 18.768 132.416 19.017 133.257 19.111 133.85 19.049 134.443 18.987 134.945 18.748 135.354 18.33 135.769 17.914 136.126 17.291 136.426 16.46 136.73 15.637 137.034 14.562 137.338 13.235V13.235L139.439 4.057 141.323 4.488 139.237 13.598C138.797 15.521 138.422 16.832 138.112 17.531 137.802 18.23 137.463 18.803 137.095 19.25 136.726 19.704 136.273 20.057 135.739 20.309V20.309C134.606 20.854 133.087 20.909 131.184 20.473V20.473C128.361 19.827 126.72 18.599 126.262 16.791V16.791C126.014 15.787 126.035 14.535 126.324 13.034V13.034C126.456 12.342 126.605 11.63 126.772 10.898ZM140.698 23.399L148.163 7.499C150.497 8.389 152.434 9.196 153.973 9.919V9.919L154.18 10.016C155.852 10.801 156.852 11.726 157.181 12.79V12.79C157.436 13.702 157.218 14.891 156.53 16.359V16.359C155.649 18.234 154.726 19.504 153.762 20.166V20.166C152.777 20.841 151.591 21 150.204 20.642V20.642C150.309 21.043 150.401 21.457 150.479 21.883V21.883L150.678 23.055 151.484 28.464 149.401 27.485 148.772 22.589C148.582 21.26 148.403 20.358 148.237 19.884V19.884L148.12 19.829C147.633 19.585 147.163 19.35 146.712 19.123V19.123L145.226 18.349 142.465 24.229ZM149.309 9.655L145.887 16.942C146.604 17.322 147.744 17.88 149.307 18.614V18.614C150.587 19.215 151.632 19.265 152.439 18.764V18.764C153.135 18.313 153.853 17.3 154.593 15.724V15.724C155.217 14.396 155.33 13.388 154.933 12.703V12.703C154.697 12.299 154.379 11.984 153.978 11.759 153.577 11.534 153.224 11.35 152.917 11.206 152.604 11.059 152.302 10.921 152.011 10.792 151.72 10.662 151.431 10.534 151.146 10.407 150.86 10.281 150.567 10.154 150.267 10.028V10.028ZM153.312 30.174L163.734 16.097C163.734 16.097 164.222 16.404 165.197 17.018V17.018C166.664 17.939 167.811 18.706 168.638 19.318 169.466 19.931 170.101 20.451 170.545 20.879 170.994 21.31 171.348 21.742 171.607 22.173 171.862 22.61 172.02 23.061 172.08 23.527 172.144 23.988 172.103 24.49 171.956 25.035V25.035C171.69 26.053 170.984 27.336 169.838 28.884V28.884L168.777 30.317C167.421 32.148 166.255 33.438 165.28 34.187V34.187C164.151 35.053 163.002 35.427 161.835 35.306V35.306C160.622 35.193 159.203 34.536 157.58 33.334V33.334ZM169.989 24.074C170.022 23.561 169.897 23.06 169.615 22.57 169.324 22.082 168.743 21.516 167.873 20.871 167.003 20.227 165.836 19.442 164.373 18.516V18.516L155.86 30.015 158.807 32.197C159.955 33.046 160.946 33.487 161.782 33.519V33.519C162.596 33.559 163.421 33.203 164.258 32.452V32.452C164.96 31.839 165.914 30.718 167.119 29.09V29.09L168.186 27.649C169.324 26.111 169.925 24.92 169.989 24.074ZM164.162 38.842L181.341 31.882 183.071 33.929 173.587 50 172.243 48.409 175.062 43.733 170.485 38.313 165.467 40.387ZM172.088 37.664L175.964 42.253 181.022 33.912 179.793 34.48ZM176.007 54.549L181.667 51.341 188.514 40.873 189.567 42.738 184.834 49.736 183.559 51.429 185.693 51.196 194.064 50.702 195.127 52.585 182.627 53.042 176.957 56.232ZM180.81 60.904L182.59 61.06C182.331 63.013 182.493 64.771 183.074 66.333V66.333C183.748 68.145 184.722 68.991 185.996 68.871V68.871C186.412 68.83 186.87 68.716 187.368 68.531V68.531L187.788 68.375C188.292 68.187 188.686 67.998 188.97 67.807 189.249 67.625 189.446 67.382 189.559 67.078V67.078C189.744 66.584 189.682 65.597 189.372 64.118V64.118C189.102 62.801 188.966 61.873 188.964 61.335 188.963 60.797 189.008 60.338 189.1 59.956 189.192 59.575 189.35 59.218 189.574 58.887V58.887C190.054 58.198 190.867 57.64 192.013 57.214V57.214L192.125 57.172C194.497 56.29 196.283 56.749 197.484 58.548V58.548C197.862 59.124 198.197 59.807 198.491 60.598V60.598L198.543 60.738C199.231 62.587 199.528 64.195 199.435 65.562V65.562L197.573 65.617C197.655 63.97 197.475 62.552 197.033 61.363V61.363L196.995 61.261C196.506 59.947 195.923 59.133 195.246 58.818V58.818C194.674 58.556 193.871 58.617 192.837 59.002V59.002L192.8 59.015C191.623 59.453 190.972 60.064 190.846 60.848V60.848C190.771 61.372 190.854 62.234 191.095 63.434 191.336 64.634 191.498 65.535 191.579 66.135 191.661 66.735 191.631 67.285 191.491 67.784V67.784C191.186 68.811 190.187 69.64 188.493 70.27V70.27L188.353 70.322C185.77 71.283 183.842 70.817 182.571 68.923V68.923C182.176 68.34 181.874 67.765 181.663 67.198 181.452 66.632 181.279 66.108 181.143 65.627 181.015 65.15 180.91 64.651 180.829 64.128V64.128C180.64 62.916 180.634 61.841 180.81 60.904ZM29.348 119.697L44.411 114.569 42.899 110.127 44.512 109.578 48.223 120.481 46.611 121.03 45.044 116.427 29.981 121.555ZM33.264 129.63L48.9 121.519 49.799 123.252 42.742 126.913 46.577 134.307 53.635 130.646 54.529 132.37 38.893 140.482 37.998 138.758 45.091 135.078 41.256 127.684 34.163 131.364ZM42.963 145.869L57.16 135.441 58.31 137.006 44.114 147.435ZM48.747 152.379L61.074 139.866C62.979 141.481 64.537 142.886 65.748 144.079V144.079L65.911 144.24C67.227 145.536 67.863 146.741 67.82 147.854V147.854C67.756 148.799 67.156 149.848 66.018 151.003V151.003C64.564 152.479 63.272 153.369 62.142 153.674V153.674C60.989 153.983 59.818 153.738 58.628 152.939V152.939C58.594 153.353 58.543 153.774 58.476 154.201V154.201L58.273 155.372 57.235 160.742 55.596 159.127 56.631 154.3C56.893 152.983 57.025 152.073 57.026 151.57V151.57L56.934 151.479C56.555 151.088 56.19 150.71 55.84 150.346V150.346L54.697 149.122 50.138 153.75ZM61.437 142.28L55.787 148.015C56.337 148.612 57.226 149.516 58.457 150.728V150.728C59.465 151.721 60.433 152.115 61.361 151.911V151.911C62.168 151.717 63.181 151.001 64.403 149.761V149.761C65.433 148.715 65.875 147.803 65.728 147.024V147.024C65.64 146.565 65.444 146.162 65.141 145.817 64.838 145.472 64.566 145.18 64.324 144.942 64.078 144.7 63.839 144.469 63.608 144.25 63.376 144.031 63.146 143.815 62.919 143.6 62.692 143.386 62.458 143.169 62.217 142.95V142.95ZM61.59 163.566L71.176 148.907C71.176 148.907 71.68 149.185 72.689 149.742V149.742C74.207 150.575 75.397 151.274 76.259 151.838 77.121 152.401 77.785 152.883 78.253 153.285 78.727 153.689 79.105 154.1 79.389 154.515 79.669 154.936 79.853 155.378 79.94 155.84 80.03 156.296 80.018 156.8 79.903 157.351V157.351C79.697 158.383 79.067 159.705 78.012 161.317V161.317L77.036 162.81C75.79 164.717 74.701 166.072 73.77 166.876V166.876C72.693 167.807 71.569 168.246 70.397 168.194V168.194C69.179 168.152 67.725 167.578 66.035 166.473V166.473ZM77.884 156.507C77.887 155.993 77.733 155.5 77.423 155.027 77.104 154.557 76.491 154.025 75.585 153.433 74.679 152.84 73.469 152.124 71.954 151.285V151.285L64.124 163.259 67.193 165.266C68.388 166.047 69.404 166.43 70.24 166.413V166.413C71.054 166.406 71.858 166.003 72.65 165.203V165.203C73.315 164.551 74.202 163.377 75.31 161.681V161.681L76.292 160.18C77.339 158.579 77.869 157.355 77.884 156.507ZM82.82 173.542L84.022 172.22C85.42 173.608 86.917 174.543 88.512 175.026V175.026C90.362 175.586 91.625 175.323 92.301 174.237V174.237C92.52 173.88 92.707 173.447 92.861 172.939V172.939L92.991 172.51C93.147 171.995 93.235 171.567 93.254 171.226 93.279 170.893 93.204 170.59 93.031 170.315V170.315C92.749 169.869 91.926 169.321 90.561 168.672V168.672C89.349 168.09 88.529 167.637 88.1 167.313 87.67 166.988 87.332 166.674 87.084 166.37 86.836 166.066 86.648 165.724 86.52 165.345V165.345C86.262 164.546 86.31 163.561 86.664 162.391V162.391L86.699 162.277C87.432 159.855 88.879 158.71 91.038 158.844V158.844C91.725 158.892 92.472 159.038 93.279 159.283V159.283L93.422 159.326C95.31 159.898 96.77 160.635 97.802 161.537V161.537L96.718 163.051C95.458 161.99 94.22 161.275 93.006 160.907V160.907L92.901 160.875C91.56 160.469 90.559 160.44 89.898 160.789V160.789C89.343 161.086 88.906 161.762 88.586 162.817V162.817L88.575 162.855C88.211 164.057 88.303 164.945 88.85 165.52V165.52C89.222 165.897 89.959 166.352 91.06 166.887 92.161 167.421 92.975 167.838 93.503 168.136 94.03 168.435 94.45 168.791 94.762 169.205V169.205C95.395 170.07 95.45 171.367 94.926 173.096V173.096L94.883 173.239C94.084 175.877 92.546 177.129 90.269 176.995V176.995C89.566 176.955 88.925 176.848 88.347 176.673 87.768 176.498 87.247 176.319 86.781 176.137 86.324 175.95 85.863 175.73 85.398 175.478V175.478C84.319 174.895 83.459 174.249 82.82 173.542ZM96.585 178.483L104.152 161.562 106.818 161.841 111.113 180 109.042 179.784 107.834 174.459 100.779 173.722 98.597 178.693ZM101.485 172.143L107.46 172.767 105.328 163.248 104.836 164.509ZM117.648 179.622L116.515 163.751 111.834 164.085 111.713 162.386 123.201 161.566 123.323 163.265 118.473 163.611 119.606 179.482ZM126.206 170.487L124.088 161.232 125.982 160.798 128.083 169.976C128.498 171.789 128.858 173.005 129.163 173.623 129.469 174.248 129.765 174.705 130.049 174.994 130.332 175.277 130.658 175.482 131.028 175.608V175.608C131.737 175.848 132.638 175.843 133.732 175.592 134.82 175.343 135.618 175.062 136.125 174.748 136.633 174.434 136.98 174.001 137.166 173.447 137.359 172.892 137.41 172.175 137.318 171.296 137.234 170.423 137.04 169.323 136.736 167.995V167.995L134.635 158.817 136.519 158.386 138.605 167.496C139.045 169.419 139.277 170.763 139.302 171.527 139.328 172.291 139.272 172.955 139.135 173.518 138.999 174.087 138.746 174.602 138.374 175.061V175.061C137.591 176.045 136.247 176.754 134.343 177.19V177.19C131.52 177.836 129.509 177.445 128.31 176.016V176.016C127.651 175.22 127.125 174.083 126.732 172.605V172.605C126.549 171.925 126.374 171.219 126.206 170.487ZM146.522 172.863L139.056 156.963C141.232 155.736 143.089 154.762 144.629 154.039V154.039L144.836 153.941C146.508 153.157 147.858 152.977 148.887 153.404V153.404C149.751 153.791 150.528 154.718 151.217 156.185V156.185C152.098 158.061 152.485 159.581 152.379 160.746V160.746C152.269 161.935 151.634 162.949 150.472 163.788V163.788C150.848 163.964 151.225 164.157 151.603 164.369V164.369L152.632 164.964 157.308 167.799 155.225 168.777 151.056 166.133C149.912 165.431 149.104 164.992 148.633 164.817V164.817L148.515 164.872C148.017 165.091 147.536 165.302 147.074 165.505V165.505L145.529 166.153 148.29 172.033ZM141.447 157.459L144.868 164.746C145.619 164.438 146.775 163.917 148.339 163.183V163.183C149.619 162.581 150.325 161.81 150.455 160.868V160.868C150.553 160.045 150.231 158.845 149.492 157.27V157.27C148.868 155.941 148.165 155.211 147.384 155.078V155.078C146.923 155.002 146.477 155.046 146.048 155.21 145.619 155.375 145.251 155.529 144.945 155.673 144.632 155.82 144.333 155.964 144.047 156.106 143.761 156.247 143.479 156.388 143.199 156.526 142.919 156.665 142.635 156.809 142.346 156.96V156.96ZM161.466 164.698L151.044 150.62C151.044 150.62 151.48 150.243 152.352 149.49V149.49C153.661 148.356 154.73 147.482 155.557 146.87 156.385 146.257 157.068 145.801 157.606 145.502 158.15 145.198 158.666 144.986 159.154 144.864 159.647 144.747 160.124 144.728 160.588 144.807 161.047 144.88 161.515 145.066 161.993 145.366V145.366C162.889 145.917 163.91 146.967 165.056 148.515V148.515L166.117 149.949C167.473 151.78 168.366 153.271 168.797 154.423V154.423C169.297 155.756 169.318 156.963 168.862 158.044V158.044C168.4 159.172 167.357 160.336 165.734 161.538V161.538ZM160.5 146.966C160.019 146.785 159.503 146.758 158.953 146.885 158.4 147.021 157.689 147.411 156.819 148.055 155.949 148.7 154.857 149.586 153.544 150.715V150.715L162.057 162.214 165.004 160.033C166.152 159.183 166.863 158.363 167.138 157.573V157.573C167.414 156.807 167.314 155.914 166.84 154.893V154.893C166.458 154.043 165.665 152.804 164.46 151.176V151.176L163.393 149.734C162.254 148.197 161.29 147.274 160.5 146.966ZM174.631 153.859L164.896 138.085 166.626 136.038 184.056 142.701 182.712 144.292 177.63 142.295 173.053 147.714 175.936 152.314ZM172.144 146.242L176.021 141.652 166.951 138.061 167.717 139.177ZM187.939 136.047L182.269 132.857 169.769 132.4 170.822 130.535 179.259 130.974 181.367 131.192 180.066 129.484 175.32 122.571 176.383 120.688 183.229 131.156 188.89 134.364ZM191.468 126.92L190.223 125.638C191.695 124.329 192.722 122.893 193.303 121.33V121.33C193.977 119.519 193.793 118.242 192.751 117.5V117.5C192.408 117.259 191.988 117.046 191.49 116.861V116.861L191.069 116.704C190.565 116.517 190.144 116.402 189.805 116.361 189.474 116.316 189.166 116.372 188.881 116.528V116.528C188.419 116.781 187.821 117.569 187.088 118.891V118.891C186.432 120.064 185.929 120.855 185.578 121.263 185.228 121.671 184.893 121.99 184.575 122.218 184.256 122.447 183.903 122.613 183.517 122.718V122.718C182.703 122.925 181.723 122.816 180.578 122.39V122.39L180.465 122.348C178.094 121.466 177.041 119.951 177.309 117.804V117.804C177.399 117.122 177.592 116.385 177.886 115.595V115.595L177.938 115.455C178.626 113.606 179.452 112.194 180.417 111.221V111.221L181.861 112.396C180.723 113.589 179.933 114.779 179.49 115.968V115.968L179.452 116.071C178.963 117.385 178.872 118.382 179.179 119.063V119.063C179.441 119.635 180.088 120.114 181.122 120.498V120.498L181.159 120.512C182.336 120.95 183.228 120.913 183.836 120.402V120.402C184.235 120.054 184.735 119.348 185.337 118.282 185.939 117.216 186.406 116.429 186.736 115.921 187.067 115.414 187.449 115.017 187.881 114.731V114.731C188.783 114.153 190.081 114.179 191.775 114.809V114.809L191.915 114.861C194.498 115.822 195.652 117.435 195.377 119.699V119.699C195.294 120.398 195.147 121.031 194.936 121.598 194.726 122.164 194.515 122.674 194.304 123.127 194.089 123.571 193.841 124.018 193.561 124.467V124.467C192.911 125.508 192.214 126.325 191.468 126.92ZM24.817 91.929C24.817 88.162 27.871 85.109 31.637 85.109 35.404 85.109 38.457 88.162 38.457 91.929 38.457 95.696 35.404 98.749 31.637 98.749 27.871 98.749 24.817 95.696 24.817 91.929ZM186.227 91.929C186.227 88.162 189.28 85.109 193.047 85.109 196.813 85.109 199.867 88.162 199.867 91.929 199.867 95.696 196.813 98.749 193.047 98.749 189.28 98.749 186.227 95.696 186.227 91.929Z" fill="#6b7280" data-fill-palette-color="primary"></path></svg></g></svg></g></svg></g><g></g></svg></g></svg></g></svg></g><defs></defs></svg><rect width="448" height="360" fill="none" stroke="none" visibility="hidden"></rect></g></svg></g></svg>